<svg xmlns="http://www.w3.org/2000/svg" viewBox="0 0 25.243 25.243"><defs><style>.cls-1{fill:#fff;}</style></defs><title>Info</title><g id="Layer_2" data-name="Layer 2"><g id="Vector_Smart_Object_Image" data-name="Vector Smart Object Image"><path class="cls-1" d="M12.6215,1.8031A10.8184,10.8184,0,1,1,1.8031,12.6215,10.8317,10.8317,0,0,1,12.6215,1.8031m0-1.8031A12.6215,12.6215,0,1,0,25.243,12.6215,12.623,12.623,0,0,0,12.6215,0"/><rect class="cls-1" x="11.72" y="11.721" width="1.8031" height="9.0154"/><path class="cls-1" d="M12.6215,10.8195a2.7046,2.7046,0,1,1,2.7046-2.7046A2.7083,2.7083,0,0,1,12.6215,10.8195Zm0-3.6061a.9015.9015,0,1,0,.9015.9015A.9018.9018,0,0,0,12.6215,7.2133Z"/></g></g></svg>