<svg xmlns="http://www.w3.org/2000/svg" viewBox="0 0 24.6485 24.6485"><defs><style>.cls-1{fill:#fff;}</style></defs><title>Info-Mobile</title><g id="Layer_2" data-name="Layer 2"><g id="info_Image" data-name="info Image"><path class="cls-1" d="M12.3242,1.7606A10.5636,10.5636,0,1,1,1.7606,12.3242,10.5766,10.5766,0,0,1,12.3242,1.7606m0-1.7606A12.3242,12.3242,0,1,0,24.6485,12.3242,12.3257,12.3257,0,0,0,12.3242,0"/><rect class="cls-1" x="11.4434" y="11.4434" width="1.7606" height="8.803"/><path class="cls-1" d="M12.3237,10.5631a2.6409,2.6409,0,1,1,2.6409-2.6409A2.6445,2.6445,0,0,1,12.3237,10.5631Zm0-3.5212a.88.88,0,1,0,.88.88A.8813.8813,0,0,0,12.3237,7.0419Z"/></g></g></svg>