<svg xmlns="http://www.w3.org/2000/svg" viewBox="0 0 118.9085 16.0385"><defs><style>.cls-1{fill:#fff;}</style></defs><title>logo-S</title><g id="Layer_2" data-name="Layer 2"><g id="x_Image" data-name="x Image"><path class="cls-1" d="M115.7009,4.8109c0,1.6048-.9169,2.0633-2.2905,2.0633h-4.3538l-.2293-.2293V2.977l.2293-.2293H113.41c1.3736,0,2.2905.4585,2.2905,2.0632m3.2076,0c0-3.2056-2.2925-4.81-5.4981-4.81H105.849L105.62.23V15.8091l.2293.2292h2.749l.2293-.2292V9.8506l.2293-.2273h2.2924l.4566.2273,4.583,5.9586.4566.2292h1.3755l.2293-.2292V13.5166l-2.9784-3.8934V9.3939a4.54,4.54,0,0,0,3.4369-4.583"/><path class="cls-1" d="M9.1642,9.6208,8.9349,9.85H5.04L4.81,9.6208,6.8717,4.1227h.2293Zm4.81,6.1877V13.5161L8.7057.2293,8.4764,0H5.4981L5.2689.2293,0,13.5161v2.2924l.2293.2293H2.2886l.2293-.2293L3.666,12.8321l.4566-.2292H9.85l.4584.2292,1.1463,2.9764.2273.2293h2.0633Z"/><polygon class="cls-1" points="47.822 15.809 47.822 13.221 47.593 12.991 40.492 12.991 40.263 12.762 40.263 0.229 40.033 0 37.284 0 37.053 0.229 37.053 15.809 37.284 16.038 47.593 16.038 47.822 15.809"/><polygon class="cls-1" points="82.598 0.23 82.598 2.818 82.369 3.047 76.757 3.047 76.528 3.276 76.528 15.809 76.299 16.039 73.552 16.039 73.322 15.809 73.322 0.23 73.552 0.001 82.369 0.001 82.598 0.23"/><polygon class="cls-1" points="70.269 2.818 70.269 0.23 70.039 0.001 68.808 0.001 68.747 0.001 67.446 0.001 67.216 0.23 67.216 2.818 67.446 3.048 68.673 3.048 68.736 3.048 70.039 3.048 70.269 2.818"/></g></g></svg>