<svg xmlns="http://www.w3.org/2000/svg" viewBox="0 0 156.7073 21.1369"><defs><style>.cls-1{fill:#fff;}</style></defs><title>Logo-s-mobile</title><g id="Layer_2" data-name="Layer 2"><g id="Background_Image" data-name="Background Image"><path class="cls-1" d="M152.48,6.34c0,2.115-1.2084,2.7192-3.0187,2.7192h-5.7378l-.3021-.3022V3.9233l.3021-.3022h5.7378c1.81,0,3.0187.6043,3.0187,2.7191m4.2272,0c0-4.2246-3.0213-6.3394-7.2459-6.3394h-9.965l-.3021.302V20.8345l.3021.302h3.6229l.3021-.302V12.9819l.3021-.3h3.0212l.6017.3,6.04,7.8527.6017.302h1.8128l.3021-.302V17.8133l-3.9251-5.131V12.38a5.9832,5.9832,0,0,0,4.5294-6.04"/><path class="cls-1" d="M12.0773,12.6791l-.3021.3022H6.6417L6.34,12.6791,9.0561,5.4332h.3021Zm6.34,8.1547V17.8127L11.4731.3022,11.1709,0H7.2458l-.302.3022L0,17.8127v3.0211l.3021.3022h2.714l.3021-.3022,1.5131-3.9225.6017-.302h7.548l.6042.302,1.5106,3.9225.3.3022h2.7191Z"/><polygon class="cls-1" points="63.024 20.834 63.024 17.423 62.722 17.121 53.364 17.121 53.061 16.819 53.061 0.302 52.759 0 49.136 0 48.832 0.302 48.832 20.834 49.136 21.136 62.722 21.136 63.024 20.834"/><polygon class="cls-1" points="108.855 0.303 108.855 3.714 108.553 4.016 101.157 4.016 100.855 4.318 100.855 20.835 100.553 21.137 96.932 21.137 96.63 20.835 96.63 0.303 96.932 0.001 108.553 0.001 108.855 0.303"/><polygon class="cls-1" points="92.606 3.714 92.606 0.304 92.304 0.001 90.681 0.001 90.601 0.001 88.885 0.001 88.583 0.304 88.583 3.714 88.885 4.016 90.503 4.016 90.586 4.016 92.304 4.016 92.606 3.714"/></g></g></svg>