<svg xmlns="http://www.w3.org/2000/svg" viewBox="0 0 286.1183 91"><defs><style>.cls-1{fill:#fff;}</style></defs><title>logo-L-Mobile</title><g id="Layer_2" data-name="Layer 2"><g id="info_Image" data-name="info Image"><path class="cls-1" d="M278.4023,11.5776c0,3.86-2.2069,4.9629-5.5158,4.9629H262.4146l-.5529-.551V7.1658l.5529-.551h10.4719c3.3089,0,5.5158,1.103,5.5158,4.9628m7.716,0c0-7.7159-5.5148-11.5768-13.2317-11.5768H254.6978l-.551.5519V38.0391l.551.5519h6.613l.551-.5519V23.7054l.5529-.551h5.5139l1.0981.551,11.03,14.3337,1.0982.5519h3.3089l.5519-.5519V32.5243l-7.1649-9.37v-.5519a10.916,10.916,0,0,0,8.2679-11.0248"/><path class="cls-1" d="M22.05,23.1526l-.551.552H12.1278l-.5519-.552,4.959-13.2307h.5519ZM33.6264,38.0382V32.5234L20.9466.551,20.3947,0h-7.164l-.5519.551L0,32.5234v5.5148l.551.551H5.51l.551-.551,2.7579-7.1649,1.103-.551H23.7036l1.1039.551,2.7569,7.1649.5471.551h4.9638Z"/><polygon class="cls-1" points="115.071 38.038 115.071 31.81 114.52 31.258 97.432 31.258 96.881 30.707 96.881 0.551 96.329 0 89.712 0 89.16 0.551 89.16 38.038 89.712 38.589 114.52 38.589 115.071 38.038"/><polygon class="cls-1" points="198.751 0.552 198.751 6.78 198.2 7.332 184.695 7.332 184.144 7.883 184.144 38.039 183.592 38.59 176.979 38.59 176.427 38.039 176.427 0.552 176.979 0.001 198.2 0.001 198.751 0.552"/><polygon class="cls-1" points="169.081 6.782 169.081 0.553 168.53 0.001 165.567 0.001 165.422 0.001 162.288 0.001 161.736 0.553 161.736 6.782 162.288 7.333 165.246 7.333 165.395 7.333 168.53 7.333 169.081 6.782"/><path class="cls-1" d="M198.4619,86.93c0-2.71-2.13-3.8715-4.8391-4.2572-2.7105-.3886-3.4887-.7782-3.4887-1.9362,0-.7791.5819-1.3552,2.3258-1.3552,2.13,0,2.7105.5761,2.7105,1.74l.1914.1962h2.3267l.1924-.1962c0-2.3219-1.5486-4.0648-5.2287-4.0648-3.6762,0-5.2277,1.7429-5.2277,3.68,0,2.7105,2.1286,3.6762,4.843,4.0648,2.71.39,3.4848.7743,3.4848,2.1286,0,1.1639-.9667,1.7448-2.7105,1.7448-2.3258,0-3.1-.7743-3.1-2.1286l-.1914-.1972h-2.3258l-.1933.1972c0,2.5172,1.7448,4.4534,5.6182,4.4534,4.0648,0,5.6124-1.9362,5.6124-4.07m-35.9183-.1914c0,1.1619-.58,1.7438-1.9362,1.7438h-3.0991l-.1924-.1962V85.1913l.1924-.1972h3.0991c1.3562,0,1.9362.5819,1.9362,1.7448m-.3886-5.6173a1.4192,1.4192,0,0,1-1.5476,1.5515h-3.0991l-.1924-.1962V79.7664l.1924-.1924h3.0991c1.1629,0,1.5476.582,1.5476,1.5476m3.0991,6.0059a3.0286,3.0286,0,0,0-2.3248-3.2963v-.1924a2.7423,2.7423,0,0,0,1.9362-2.9019c0-2.5181-1.9362-3.4887-3.8724-3.4887h-6.1944l-.1972.1972v13.166l.1972.1924h6.583c1.9362,0,3.8724-.9657,3.8724-3.6762m-36.7593-1.7439-.1972.1924h-3.2915l-.1924-.1924,1.7448-4.6468h.1924Zm4.0658,5.2277V88.6752l-4.4554-11.23-.1924-.1972h-2.5172l-.1933.1972-4.4534,11.23v1.9362l.1914.1924h1.7449l.1923-.1924.9657-2.5172.3886-.1933h4.844l.3857.1933.9705,2.5172.1914.1924h1.7439Zm-34.3707,0V88.6752l-.1924-.1924H91.9916l-.1924-.1962V77.4454l-.1933-.1972H89.2811l-.1924.1972v13.166l.1924.1924h8.7164Z"/></g></g></svg>