<svg xmlns="http://www.w3.org/2000/svg" viewBox="0 0 562.804 179"><defs><style>.cls-1{fill:#fff;}</style></defs><title>logo_L</title><g id="Layer_2" data-name="Layer 2"><g id="Vector_Smart_Object_Image" data-name="Vector Smart Object Image"><path class="cls-1" d="M547.6265,22.7736c0,7.5926-4.341,9.7621-10.85,9.7621H516.1782l-1.0876-1.0838V14.0953l1.0876-1.0838h20.5985c6.5088,0,10.85,2.17,10.85,9.762m15.1776,0c0-15.1774-10.8479-22.7719-26.0273-22.7719H500.9989l-1.0838,1.0857V74.8242l1.0838,1.0857h13.0079l1.0838-1.0857V46.6294l1.0876-1.0838h10.846l2.16,1.0838L550.88,74.8242l2.16,1.0857h6.5086l1.0857-1.0857V63.9763L546.5408,45.5455V44.46c8.6707-2.17,16.2633-9.7621,16.2633-21.6862"/><path class="cls-1" d="M43.3723,45.5418l-1.0838,1.0858H23.8557L22.77,45.5418l9.7545-26.0253H33.61ZM66.1442,74.8224V63.9746L41.2028,1.0838,40.117,0H26.0252L24.94,1.0838,0,63.9746V74.8224l1.0838,1.0838h9.7544l1.0838-1.0838L17.347,60.7288l2.17-1.0838H46.6257l2.1715,1.0838L54.22,74.8224l1.0762,1.0838H65.06Z"/><polygon class="cls-1" points="226.348 74.822 226.348 62.571 225.264 61.486 191.652 61.486 190.568 60.402 190.568 1.084 189.482 0 176.467 0 175.381 1.084 175.381 74.822 176.467 75.906 225.264 75.906 226.348 74.822"/><polygon class="cls-1" points="390.95 1.086 390.95 13.337 389.866 14.423 363.301 14.423 362.217 15.507 362.217 74.825 361.132 75.909 348.124 75.909 347.038 74.825 347.038 1.086 348.124 0.002 389.866 0.002 390.95 1.086"/><polygon class="cls-1" points="332.588 13.34 332.588 1.089 331.504 0.003 325.676 0.003 325.391 0.003 319.227 0.003 318.141 1.089 318.141 13.34 319.227 14.423 325.045 14.423 325.338 14.423 331.504 14.423 332.588 13.34"/><path class="cls-1" d="M390.3811,170.9949c0-5.33-4.1889-7.6154-9.5187-8.374C375.5307,161.8565,374,161.09,374,158.8122c0-1.5326,1.1447-2.6658,4.5749-2.6658,4.1889,0,5.3317,1.1332,5.3317,3.4226l.3765.386H388.86l.3785-.386c0-4.5673-3.0462-7.9956-10.285-7.9956-7.2313,0-10.2831,3.4283-10.2831,7.2388,0,5.3317,4.1869,7.2313,9.5263,7.9957,5.3316.7663,6.8547,1.5231,6.8547,4.187,0,2.2894-1.9015,3.4321-5.3317,3.4321-4.5749,0-6.0979-1.5231-6.0979-4.187l-.3765-.3879H368.67l-.38.3879c0,4.9514,3.4321,8.76,11.0513,8.76,7.9957,0,11.04-3.8086,11.04-8.0051m-70.6525-.3765c0,2.2855-1.1409,3.43-3.8087,3.43h-6.0961l-.3784-.386v-6.0885l.3784-.3879H315.92c2.6678,0,3.8087,1.1447,3.8087,3.4321m-.7644-11.0494a2.7915,2.7915,0,0,1-3.0443,3.0519h-6.0961l-.3784-.386v-5.3317l.3784-.3784H315.92c2.2875,0,3.0443,1.1447,3.0443,3.0443m6.0961,11.8138c0-3.43-1.5211-5.7177-4.573-6.484V164.52c2.6735-.7549,3.8086-3.0423,3.8086-5.7082,0-4.9533-3.8086-6.8623-7.6172-6.8623H304.494l-.3879.3879v25.8979l.3879.3784h12.949c3.8086,0,7.6172-1.9,7.6172-7.2312m-72.3068-3.43-.3879.3784h-6.4745l-.3784-.3784,3.4321-9.14h.3784Zm7.9976,10.2831V174.427l-8.7638-22.0893-.3784-.3879h-4.9514l-.38.3879-8.76,22.0893v3.8086l.3765.3784h3.4322l.3783-.3784,1.9-4.9514.7643-.38h9.5282l.7587.38,1.9091,4.9514.3765.3784h3.43Zm-67.6083,0V174.427l-.3784-.3784H180.95l-.3784-.386V152.3377l-.38-.3879h-4.573l-.3784.3879v25.8979l.3784.3784h17.1455Z"/></g></g></svg>